<?xml version="1.0" standalone="no"?>
<!DOCTYPE svg PUBLIC "-//W3C//DTD SVG 20010904//EN"
 "http://www.w3.org/TR/2001/REC-SVG-20010904/DTD/svg10.dtd">
<svg version="1.0" xmlns="http://www.w3.org/2000/svg"
 width="521.000000pt" height="521.000000pt" viewBox="0 0 521.000000 521.000000"
 preserveAspectRatio="xMidYMid meet">
<metadata>
Created by potrace 1.11, written by Peter Selinger 2001-2013
</metadata>
<g transform="translate(0.000000,521.000000) scale(0.100000,-0.100000)"
fill="#000000" stroke="none">
<path d="M1675 4659 c-107 -20 -196 -71 -273 -154 -171 -185 -165 -477 14
-660 44 -46 122 -97 175 -115 l35 -13 0 -813 c-1 -806 -1 -814 19 -819 11 -3
43 -12 70 -21 28 -8 113 -33 190 -55 77 -22 246 -71 375 -109 129 -37 352
-102 495 -144 143 -41 292 -85 330 -96 l70 -22 0 -616 0 -617 128 -3 c97 -2
127 0 128 10 1 7 2 748 3 1646 l1 1633 56 23 c330 134 406 569 140 808 -240
216 -622 135 -758 -159 -67 -144 -56 -326 27 -456 45 -72 122 -140 198 -177
37 -18 69 -35 72 -37 5 -5 8 -1752 3 -1769 -4 -10 -103 17 -713 196 -135 39
-317 92 -405 117 -88 25 -162 47 -164 49 -3 3 -5 1346 -2 1415 1 10 20 23 49
34 231 88 361 364 280 600 -76 223 -316 366 -543 324z"/>
</g>
</svg>
